<svg id="Layer_11" data-name="Layer 11" xmlns="http://www.w3.org/2000/svg" xmlns:xlink="http://www.w3.org/1999/xlink" viewBox="0 0 566.25 160.16"><defs><style>.cls-1{fill:none;stroke:#1a1a1a;stroke-miterlimit:10;stroke-width:2.4px;}.cls-2{mask:url(#mask);}.cls-3{fill:url(#New_Gradient_Swatch_318);}.cls-4{font-size:83.23px;letter-spacing:0.48em;}.cls-4,.cls-8{fill:#606270;font-family:NeutraText-Demi, Neutra Text;font-weight:300;}.cls-5{letter-spacing:0.47em;}.cls-6{letter-spacing:0.47em;}.cls-7{letter-spacing:0.5em;}.cls-8{font-size:32.22px;letter-spacing:0.45em;}.cls-9{letter-spacing:0.45em;}.cls-10{letter-spacing:0.46em;}.cls-11{letter-spacing:0.46em;}.cls-12{letter-spacing:0.47em;}.cls-13{letter-spacing:0.41em;}.cls-14{letter-spacing:0.15em;}.cls-15{fill:#fff;}.cls-16{filter:url(#luminosity-noclip);}</style><filter id="luminosity-noclip" x="17.52" y="17.87" width="566.25" height="160.16" filterUnits="userSpaceOnUse" color-interpolation-filters="sRGB"><feFlood flood-color="#fff" result="bg"/><feBlend in="SourceGraphic" in2="bg"/></filter><mask id="mask" x="0" y="0" width="566.25" height="160.16" maskUnits="userSpaceOnUse"><g class="cls-16"><g transform="translate(-17.52 -17.87)"><rect class="cls-1" x="25.51" y="25.46" width="550.26" height="143.16"/></g></g></mask><linearGradient id="New_Gradient_Swatch_318" x1="77.74" y1="-16.93" x2="453.65" y2="160.62" gradientUnits="userSpaceOnUse"><stop offset="0" stop-color="#afbba5"/><stop offset="0.58" stop-color="#cfdec4"/><stop offset="1" stop-color="#afbba5"/></linearGradient></defs><g class="cls-2"><rect class="cls-3" width="566.25" height="160.16"/></g><text class="cls-4" transform="translate(74.92 89.71) scale(1.03 1)">P<tspan class="cls-5" x="89.17" y="0">E</tspan><tspan class="cls-6" x="177.37" y="0">LL</tspan><tspan class="cls-7" x="345.73" y="0">E</tspan></text><text class="cls-8" transform="translate(138.37 130.52) scale(1.03 1)">P<tspan class="cls-9" x="33.68" y="0">R</tspan><tspan class="cls-10" x="67.68" y="0">O</tspan><tspan class="cls-11" x="108.42" y="0">FO</tspan><tspan class="cls-12" x="181.93" y="0">N</tspan><tspan class="cls-13" x="219.72" y="0">D</tspan><tspan class="cls-14" x="255.03" y="0">A</tspan></text><rect class="cls-15" x="32.01" y="60.41" width="37.79" height="3.4"/><rect class="cls-15" x="128.79" y="60.41" width="37.79" height="3.4"/><rect class="cls-15" x="219.96" y="60.41" width="37.79" height="3.4"/><rect class="cls-15" x="297.94" y="60.41" width="37.79" height="3.4"/><rect class="cls-15" x="385.82" y="60.41" width="37.79" height="3.4"/><rect class="cls-15" x="486.6" y="60.41" width="37.79" height="3.4"/></svg>